<?xml version="1.0" encoding="utf-8"?>
<!-- Generator: Adobe Illustrator 15.0.2, SVG Export Plug-In  -->
<!DOCTYPE svg PUBLIC "-//W3C//DTD SVG 1.1//EN" "http://www.w3.org/Graphics/SVG/1.1/DTD/svg11.dtd" [
	<!ENTITY ns_flows "http://ns.adobe.com/Flows/1.0/">
]>
<svg version="1.1"
	 xmlns="http://www.w3.org/2000/svg" xmlns:xlink="http://www.w3.org/1999/xlink" xmlns:a="http://ns.adobe.com/AdobeSVGViewerExtensions/3.0/"
	 x="0px" y="0px" width="46px" height="46px" viewBox="-0.4 -0.2 46 46"
	 overflow="visible" enable-background="new -0.4 -0.2 46 46" xml:space="preserve">
<defs>
</defs>
<path fill-rule="evenodd" clip-rule="evenodd" fill="#DC332D" d="M26.5,0.8C25,0.9,23.3,1,21.6,1c0.9-0.9,2.9,0.1,4.2-0.6
	C25.9,0.7,26.4,0.5,26.5,0.8z"/>
<path fill-rule="evenodd" clip-rule="evenodd" fill="#DC332D" d="M34.8,8.2C33.6,8,32.5,8.6,31,8.6c-0.4,0-0.7-0.2-1.1-0.2
	c-2,0.1-4.2,0.8-5.7,0.4C23.5,8.6,22.9,8,23,7.2c0.3-1.7,3.2-0.6,4.2-1.7c1.4,0,3.5-0.2,5.3-0.1C34.4,5.5,37,6.4,34.8,8.2z
	 M29.1,7.8c1-0.1,2.4,0.1,3.2,0c0.5-0.1,1.7-0.5,1.6-1c-0.1-0.8-2.3-0.6-2.8-0.5c-1.9,0.2-4.7,0.6-6.3,0.6c0-0.1-0.1-0.1-0.1,0
	C24.9,7,24.2,7,24.4,7.5c0.7,0.7,2,0.5,3.1,0.3C27.9,8.2,28.4,7.8,29.1,7.8z"/>
<path fill-rule="evenodd" clip-rule="evenodd" fill="#DC332D" d="M34.3,15.8c-1.1,0-2.4-0.4-3.5-0.2c-0.4,0-0.6,0.4-0.9,0.4
	c-0.4,0-0.9-0.2-1.4-0.2c-1,0-2.1,0.4-3,0.3C24.7,16,24,15.6,23.4,15c0.1-1.4-0.5-2.8-0.1-4c0.7-2.2,4.3-0.1,6.3-1.4
	c2,0.8,5-0.7,5.8,1.1C36,12.2,35.4,14.9,34.3,15.8z M25.3,14c-0.3-0.7-0.4-1.6,0.1-2.1c2.9,0.1,7.8-1.2,8,1.7
	c-0.6,0.8-1.8,0.5-2.9,1c0.4,1,2.9,0.5,3.6,0c0-1.5,0.2-2.3,0-3.4c-1-0.5-2.3-0.1-3.6-0.1c-2.1,0-4.4-0.5-6.3-0.1
	c-1.1,1.6,0.3,5.1,2.1,3.8c-0.1-0.3,0.1-0.3-0.1-0.4C26,14.5,25.6,14,25.3,14z M28.1,12.7c-0.7,0-1.7-0.5-1.8,0.4
	c0.1,0.1,0.2,0.2,0.2,0.4c2.1-0.4,4.3,0.6,5.4-0.6C31.2,11.6,29.3,12.6,28.1,12.7z"/>
<path fill-rule="evenodd" clip-rule="evenodd" fill="#DC332D" d="M45.4,11.5c0,0.2,0,0.4,0,0.6c-0.3,0-0.2-0.5-0.1-0.6
	C45.3,11.5,45.3,11.5,45.4,11.5z"/>
<path fill-rule="evenodd" clip-rule="evenodd" fill="#DC332D" d="M45.4,17.8c0,1,0,1.9,0,2.9c-0.1-0.9-0.3-2-0.1-2.9
	C45.3,17.8,45.3,17.8,45.4,17.8z"/>
<path fill-rule="evenodd" clip-rule="evenodd" fill="#DC332D" d="M0,37c0.1,0,0.1,0.1,0.1,0.2c0.1,0,0.1-0.1,0.3-0.1
	c0,0.1,0,0.3,0,0.4c-0.2-0.2-0.2,0-0.4,0.1C0,37.4,0,37.2,0,37z"/>
<path fill-rule="evenodd" clip-rule="evenodd" fill="#DC332D" d="M4.1,39.4C4,39.6,4,39.8,3.9,40c-0.2,0-0.4,0-0.4-0.1
	C3.6,39.6,3.9,39.5,4.1,39.4z"/>
<path fill-rule="evenodd" clip-rule="evenodd" fill="#DC332D" d="M0,33.5c0.6-0.1,0.5-1.5,0.1-1.7c0.1,0.1,0.4,0.2,0.3-0.1
	c0-0.3-0.3,0.2-0.2-0.2c0.5-1.1,0.5-3,0.2-4.4c0.1-0.2,0.1,0.1,0.2-0.2c0.3-1.4,0.1-2.9,0.1-3.9c-0.1,0.3-0.2,0.3-0.3,0
	c0.6,0-0.2-1.2-0.1-1.5c0,0.4,0.1-0.2,0.3,0.2c0-1.6,0.6-2.6,0.2-4.1C1.4,16.8,0.7,15,1.2,14c-0.5-0.4,0-1.3-0.2-1.9
	c-0.1-0.3-0.3-0.3-0.3-0.6c0-0.5,0.3-0.6,0.5-1C0.9,9,2.1,8,1.2,7.1c0.9-0.9,0.4-3.2,0.9-3.9C2.4,3,2.6,3.4,2.8,3.2
	C2.3,3.8,2.8,4.4,2.9,5.1C2.9,7,2,9.5,3,11.1c-0.7,1.1-0.2,2.7-0.3,4.1c-0.1,1.2-0.6,2.4-0.3,3.5c0.7-0.8,1.3-2.2,1.3-3.3
	c0.7-0.4,0.9-1.2,1.4-1.6c0.4-0.4,1.2-0.5,1.3-1.1c-1.8,0.3-3.2-1.9-2.1-3.6c0.9-0.6,2.1-0.7,2.9-0.7C6.4,7.7,4.6,8.1,4.1,7.2
	C3.6,4.1,5.8,4.8,6.5,3.1C6.4,2.9,6.3,2.7,6.2,2.5C5.1,2.2,3.8,3.2,2.9,3.2c-0.4-0.6,0.7-1,0.9-1.5c0.5,0,1.2-0.3,1.5,0
	c0-0.5,0.3-0.2,0.5-0.5c1.7,0.5,4,0.1,5.9,0.4c-1.4,0.4-4.1,0.3-3.2,2.3C9.6,4,10.6,4.1,10.8,5c0.1,0.7-0.4,1.2-0.3,1.9
	C10,7.6,9,7,8.4,7.5c0,0.3,0,0.6,0,0.9c1,0.5,2.2-0.4,2.7,0.8c0.1,0.3,0,1.8-0.1,2.2c-0.4,1.1-1.5,0.8-2.5,0.9
	c0.2,1.3,1.5,2,2.2,3.1c0.8,1.1,1.2,2.5,1.6,4c0.3,0.2,0.4,0.7,0.5,1.1c1.5-0.3,4.2-0.1,5.8-0.5c1.8-0.5,1.9-1.7,2-3.9
	c-0.6-1.6-3.3-0.2-4.3-1.2c-0.6-0.6-0.2-1.6-0.7-2.4c-0.7-0.3-2,0-2.5-0.7c-0.8-1.2,1-3.2,1-4.4c0-1.1-1.6-2.1-1.5-3.2
	c0.1-1.7,3.2-1,3.8-2c-0.5-1.8-3.6,0.1-4.4-0.6c2.6-0.7,5-0.9,7.9-0.6c-0.5,0.4-2,0.2-1.8,1.2c0.1,1.1,2.9,0.3,3.3,1.4
	c0.3,0.8-0.4,1.7-0.6,2.1c-0.3,0.7-0.6,1.2-0.8,2c0.4,1.1,1.1,1.9,1.5,3.1c-0.9,1.9-4.5-0.1-4.4,3.2c0.8,0.7,2.5-0.1,3.4,0.5
	c0.7,0.9,1.7,2.8,1.3,4.6c-0.1,0.5-0.6,0.8-0.8,1.2c-0.5,0.2-1.2,0.5-1.3,0.7c-1.2-0.1-3.9,0.3-3.7,0.6c-0.9-0.3-1.7,0.7-3,0.3
	c0,0.7-0.4,1-0.7,1.1c-0.6-0.4-0.2-1.1-0.3-1.7C11.5,19,10,15.5,8.4,15c-1,1.9,0.3,5.1-0.4,7.9C7.6,23,7.6,23.4,7,23.4
	c-0.7-0.6-0.5-1.8-0.5-2.3c0.1-1,0.1-2.3,0.2-3.5c0-0.8,0.1-1.8-0.4-2.4c-2.2,0.5-1.8,3.2-2.5,5.3c0.3,0.9-0.5,2.2-0.5,3.4
	C3.1,24,2.6,24,2.4,24.3c0.1,1-0.2,2.2,0.1,3.1c0.5-0.2,0.4-1,0.7-1.4c0.8-0.3,1.3-1.2,2.4-1.4c1.4-0.3,3.1-0.1,4.7-0.3
	c0.4-0.4,0.9-0.6,1.7-0.8c1.2,1.7,4.8,0.4,6.4,1.2c0.8,0.4,1.9,2.4,2.1,3.6c0.4,1.9,0.3,3.6,0.5,5.4c0.1,0.9,0.6,1.7,0.7,2.5
	c0,0.4-0.2,0.8-0.2,1.2c-0.1,1.9-0.1,3.8,0.5,5.5c2,0.3,4-0.2,5.8,0c0.5,0.1,0.9,0.4,1.3,0.4c1.4,0.2,2.5-0.3,3.9-0.2
	c0.4,0,0.9,0.3,1.3,0.3c1,0,2-0.4,3.1-0.4c1,0.5,3.7,0.4,3.7-0.8c0-1-1.8-0.7-2.7-0.5c-0.9,0.2-1.7,0-2.8,0c-0.8,0-1.5,0.2-2.2,0.2
	c-0.6,0-1.2-0.3-1.8-0.3c-3.1,0.2-4.8-1.7-6.7-2.9c-0.6-1.3-1.3-2.4-1-4.2c0.1-0.8,0.5-1.5,0.6-2.2c1-0.9,1.4-2,1.8-3
	c0.2-0.5,0.5-0.7,0.5-1.1c-0.1-1.6-3.9-2.5-3.7-3.5c0.1-0.5,4.5-0.7,4.6-1.8c0.1-1.2-1.7-0.5-1.8-0.5c-1,0-1.5-0.4-1.8-1.4
	c-0.5,0.1-0.6-0.2-0.9-0.3c-0.6-1-0.3-2.2-0.4-3.2c0.3-0.1,0.4-0.4,0.9-0.3c0.4,0.9,0,2.5,0.4,3.6c0.7,0.6,1.8,0.2,2.7,0.3
	c0.7,0.1,1.5,0.8,1.8,0c-0.3-1.3-2.4-0.4-3.3-1.5c-0.2-0.9-0.3-2.5,0.5-2.8c1.7,0.7,4.3,0.7,6.8,0.5c0.8,2-1.5,2.4-2.7,2.9
	c0.3,1.9,2.9,0.5,3.8,0.4c0.4-1,0.1-2.6,0.4-3.7c0.3,0,0.7,0,1,0c0.5,0.9-0.2,1.7,0.1,3.1c-0.1,0.5-0.8,0.5-0.6,1.3
	c-0.3-0.5-0.3,0.4-0.6,0.5c-1.2,0.6-2.3,0.7-3.9,0.7c-0.9,1.4-2.7,2-3.9,3c0.1,0.9,1.8,1.4,2,2.4c0.3,1.4-1.6,2.7-1,4.2
	c0.2,0.5,1.6,1.7,2.4,2c0.4,0.2,0.9,0.1,1.2,0.2c0.3,0.1,0.7,0.5,1,0.6c1.1,0.2,1.9-0.2,3.1,0.2c1.6-0.2,2.8-1.6,4.9-1.2
	c0-1.4-1.7-0.9-3-0.9c-0.9,0-2.5-0.1-2.8-0.2c-0.6,0.4-1.8,0.2-2.4,0.6c-1.3-0.4-2-3.5-0.8-4.6c1.5-0.1,4.2,0.2,3.8-1.8
	c-1.1-0.6-3.6,0.8-4.1-0.7c0-0.5,1-0.2,0.3-0.5c2.5,0.1,11.4-2.2,11.8,1.7c0.3,2.1-1.2,3.3-3.2,3c-1.7-1.3-5.2-0.1-7.6-0.5
	c-0.4,0.4-0.9,0.9-0.3,1.6c0.5,0.4,3.5-0.5,2,0.1c2.4,0.4,4.9-0.7,6.9,0c0.7,0.2,1.5,0.9,1.7,1.6c0.2,0.7-0.1,1.4-0.1,2.1
	c0,0.8,0.4,1.5,0.3,2.2c-0.2,1.4,0,2.7,0.1,4.4c0.4,0.6,0.9,0.8,0.8,1.5c-0.1,0.8-1.4,0.9-1.9,1.4c-1.7-0.4-3.5-0.1-5.3-0.1
	c-3.9,0-8.2-0.3-12.1-0.4c-3.6-0.1-7,0.1-10.3-0.1c-1-0.1-1.8-0.3-2.8-0.3c-2.3,0.1-4.7,0.1-6.8-0.4c-0.1,0.2-0.4,0.2-0.7,0.2
	c-1.4-0.3-2.4-1.5-3.2-2.1c-0.1-0.5,0.1-1.6-0.3-1.9c0,0.3,0,0.5-0.3,0.4C0,40.1,0,40,0,40c0.4,0.1,0.1-0.4,0.2-0.6
	c0.3-0.1,0.2,0.4,0.4,0.4c-0.3-0.3,0.1-1.3-0.6-1.2c0-0.3,0-0.6,0-0.9c0.2-0.1,0.2-0.3,0.4-0.1c0-0.1,0-0.3,0-0.4
	c-0.2,0-0.2,0.1-0.3,0.1c0-0.1,0-0.2-0.1-0.2c0,0,0-0.1,0-0.1c0.1,0,0.3,0,0.4,0c0.2-0.7-0.3-0.8-0.2-1.3c0.1,0.4,0.3,0,0.3,0.5
	c0.5-0.6-0.7-1.5,0.1-1.7c-0.2-0.5-0.2-0.5-0.2-1.1c-0.3,0,0,0.5-0.4,0.4C0,33.6,0,33.5,0,33.5z M19.8,3.9c-1-0.2-2-0.6-3,0
	C14.7,3,13,5.6,15.3,6.4c0.2-0.4,0.6-0.8,0.8-1.2c0,0,0-0.4,0-0.4c1.1-0.9,2.1,0.1,2.5,1.1c0.5,0,0.8,0.2,1.1-0.1
	c-0.3-0.4,0.4-0.8,0.4-1.2C20,4.4,20,4.1,19.8,3.9z M5.9,5.3C5.3,5.7,5.5,6.6,6.1,6.8c1.3-0.3,2.9-0.2,3.8-0.9
	C9.3,4.7,7.1,5.5,5.9,5.3z M16.5,8.6c1.3,0.1,1.6-1.4,1.1-2.2C16.2,5.9,15.5,7.9,16.5,8.6z M16,9.9c-0.5,0-0.8-0.4-1.3-0.4
	c-0.2,0.5-0.6,0.7-0.7,1.3c0.4,0.6,0.9,0.3,1.5,0.6c0.8-0.6,3.8,0.1,4.2-1.5C18.6,8.5,17.4,10,16,9.9z M4.9,10.2c0,0.3,0,0.6,0,0.9
	c1.1-0.1,4.3,0.7,5-0.8C9,9.3,5.9,9.3,4.9,10.2z M28.9,18.4c-0.5-0.1-1.4-0.2-1.8,0.2c0.3,0.2,0.4,0,0.8,0c0.8,1,2.9,0.1,3.9,0.1
	C30.9,18,30,18.2,28.9,18.4z M5.9,26.3c-0.2,0.5-1,0.4-0.9,1.1c0.4,0.8,1.4,0.3,2.1,0.3c0.5,0,1,0.1,1.5,0.1c1.5,0,3-0.5,4.4-0.5
	c1.9,0.1,4,0.7,5.9-0.1c0.1-0.5-0.2-0.7-0.2-1C15,25.2,9.6,25.9,5.9,26.3z M36.5,27.5c0.9,0.8,3.2,1.4,4.3,0.8
	C41.5,25.8,37.2,26.2,36.5,27.5z M16.6,29c-2.3-0.1-4.9,0.1-7.4,0.2C9,29.5,8.8,29.7,8.8,30c-0.1-0.4-0.4-0.6-0.7-0.8
	c-1.2,0-1.9,0.4-3,0.2c-0.5,0.4-0.9,0.8-0.7,1.5c1.5,0.6,3.3-0.1,5.2-0.1c2.8,0.1,5.4-0.1,7.5,0.2c0.4-0.3,0.9-0.1,1.7-0.2
	c0.2-0.4,0.6-0.5,0.7-1.3C18.9,28.5,17.6,29,16.6,29z M18.7,35.2c0.2,0.9-0.3,1.7-0.1,3c-0.3,0.4-0.5,0.9-0.9,1.1
	c-0.4,0.2-1,0-1.1,0c-0.5,0-1,0.1-1.6,0.1c-2.1,0-4.5-0.3-6.4,0.1C7.8,40,6.6,40,6.2,40.8c-0.2,0-0.4,0-0.6,0
	c-0.2,0.4-0.6,0.5-0.6,1c-0.2-0.1,0-0.5-0.3-0.2c-0.2,0.7,0.7,0.6,1.1,0.6c2.3,0.2,3.6-0.3,5.7,0c3.4,0.5,6.2,0.7,8.7-0.1
	c0.1-0.2,0.2-0.4,0.4-0.5c0-2.1,0-4.4-0.6-5.8c0.6-2-1.1-4.5-3.5-3.2c-1.2-0.7-3.2-0.2-4.3-0.1c0.1,0.5-0.5,0.3-0.5,0.7
	C12.6,34.6,18,32.2,18.7,35.2z M16.8,35.9c-1.6-1.5-7.2,0.9-6.9-2.7c-0.8-1.4-3.4-0.4-5-0.6c-0.4,0.3-0.6,0.7-0.9,1
	c0,2.1-0.8,4-0.2,5.6c2.5-0.4,3.9-1.6,6.4-1.9c0.6-0.1,1.7-0.1,2.4-0.1c1.5,0,3.5,1.1,4.3,0C16.9,36.8,17,36.2,16.8,35.9z
	 M30.6,36.9c-0.4,0.4,0.7,0,0.3,0.4c0.9-0.1,2.1,0.6,3,0c0.4,0,0.6,0.3,0.9,0.4c2.2-0.3,4.3-0.8,5.6-1.9c-0.8-0.5-2.5,0.5-4,0.6
	c-0.8,0.1-2.4-0.3-1.9,0.1c-3.1,0.3-5.7-1.9-8-3.3c-0.1,0.2-0.2-0.1-0.3,0.1C26.8,35.4,28.5,36.3,30.6,36.9z M30.4,39.6
	c0.8,0.2,1.8,0.6,2.7,0.8c1.2-0.3,2.1,0.1,3.6-0.2c0.4-0.6,1.6-0.3,1.9-0.9c-2.3-0.1-4.6,0.1-7.3-0.1c-1.8-1.2-3.9-2.1-5.7-3.4
	C25.4,38.8,27.9,38.8,30.4,39.6z M39,39.4c0.4,0.1,1,0.2,1.5,0.2c0.1-0.2,0.3-0.4,0.2-0.8C40,38.9,39.3,38.9,39,39.4z M3.5,39.9
	C3.5,40,3.7,40,3.9,40C4,39.8,4,39.6,4.1,39.4C3.9,39.5,3.6,39.6,3.5,39.9z"/>
<path fill-rule="evenodd" clip-rule="evenodd" fill="#DC332D" d="M0,38.6c0.7-0.1,0.3,0.9,0.6,1.2c-0.2,0-0.1-0.5-0.4-0.4
	C0.1,39.6,0.4,40.1,0,40"/>
<path fill-rule="evenodd" clip-rule="evenodd" fill="#DC332D" d="M45.4,12.1c0,1.9,0,3.7,0,5.6c0,0-0.1,0-0.1,0
	c-0.2,0.9,0,2,0.1,2.9c0,6.6,0,13.1,0,19.7c-0.2,0.1-0.3,0.3-0.7,0.2c-0.2-1.1-1-2.3-0.2-3.3c-1.1-4,0.3-8.7-0.6-12.5
	c-0.7-0.2-0.8-1-1.4-1c-0.7-1.1-1.7-2.1-2.2-3.4c-0.3-0.6-0.2-1.5-1-1.7c-1.1-0.2-2.9-0.1-3.3-1.3c0.3-1.1,0.2-1.9,1-2.4
	c0.5-0.3,1.2-0.1,1.6-0.6c0.1-0.4-0.2-0.4-0.1-0.7c-0.6-0.6-2-0.1-2-1.1c0-0.5,0.8-0.8,1.2-0.9c1.7-0.4,4.8-0.2,5.5,0.8
	c0.3,0.4,0.2,0.7,0.3,1.2c0.2,0.8,1.3,2.3-0.2,2.8c-0.3,0.1-1.4,0-1-0.3c-2,0.4-3.6-0.7-4.8,0.6c0,1.2,1.7,0.7,2.8,0.8
	c-0.3,0.3,0.1,0.2,0.4,0.2c0.4,0.5,0.7,1.1,0.6,2c0.8,1.1,1.3,2.5,3,3c0.8-1.1,0.1-2.5,0.2-3.7c0.1-0.6,0.4-1.2,0.4-1.8
	c-0.1-2.7-1.3-5.4-0.3-8.7C44,7,43.8,5.1,44.2,3.5c1.1,0.4,0.6,2,0.9,3.1c0.1,0,0.2,0,0.3-0.1c0,1.7,0,3.4,0,5.1c0,0-0.1,0-0.1,0
	C45.1,11.7,45.1,12.1,45.4,12.1z M40,14.6c0.9,0.8,1.7,0,2.8-0.1C43.5,12.5,39.4,12,40,14.6z"/>
<path fill-rule="evenodd" clip-rule="evenodd" fill="#DC332D" d="M44,1.5c-0.4,0.1-0.5-0.1-0.8-0.1c-1,1.1-0.4,2.7-0.3,4.2
	c0,0.3-0.2,0.7-0.2,1c0.1,1.2-0.5,2.5-1.4,3.5c-3.5,1.2-5.4-1.9-4.7-6.1c-0.4-0.8-0.1-2.4-0.9-3c-0.6,0-1.5,0.1-2,0.6
	c-0.8-0.3-2.5-0.9-3.1,0c0.4,2.5,4.1,0.6,5.2,1.9c-1.5,0.9-3.8,0.1-5.1-0.1c-1.2-1.2-1.9-0.2-3.4,0.3C26.6,4,26,3.8,25.7,4.4
	c-1-0.1-1.9,0.7-2.7,0c0.6-1.1,2.4-1,3.7-1.3c0.4-0.6,1.4-0.5,1.7-1.2c-0.2-0.5-0.8-0.6-1-1c0.6-0.9,2.1-0.5,3,0
	c1-0.4,2-0.1,2.9-0.2C34,0.5,34.8-0.1,35.6,0c0.2,0,0.3,0.3,0.5,0.3c1.2,0.3,2.7-0.1,4.1-0.2c-0.1,0.1-0.1,0.2,0,0.2
	c0.5-0.1,1.3,0.1,2,0C42.7,0.8,43.8,0.7,44,1.5z M37.7,1.6c-0.2,1.2-0.3,2.6,0,3.8c1,0.4,2.9,0.5,3.8,0.2c0.6-1.4-0.4-2.9-0.5-4.3
	C40.1,0.5,38.7,1.3,37.7,1.6z M37.9,8.3c0.1,0.4,0.9,1.2,1.4,1.2c0.9,0.1,1.9-0.7,2.2-1.3c-0.1-1.6-2.2-1.2-2.9-1.4
	C38.4,7.1,37.7,7.4,37.9,8.3z"/>
<path fill-rule="evenodd" clip-rule="evenodd" fill="#DC332D" d="M0.4,36.9c-0.1,0-0.3,0-0.4,0c0-1.1,0-2.2,0-3.3
	c0.4,0.1,0.1-0.5,0.4-0.4c0,0.6,0,0.6,0.2,1.1c-0.8,0.3,0.4,1.1-0.1,1.7"/>
<path fill-rule="evenodd" clip-rule="evenodd" fill="#DC332D" d="M39,39.4c0.3-0.4,1.1-0.5,1.7-0.6c0.1,0.4-0.1,0.6-0.2,0.8"/>
</svg>
